<?xml version="1.0" encoding="UTF-8" standalone="no"?>
<!-- Created with Inkscape (http://www.inkscape.org/) -->
<svg
   xmlns:dc="http://purl.org/dc/elements/1.1/"
   xmlns:cc="http://creativecommons.org/ns#"
   xmlns:rdf="http://www.w3.org/1999/02/22-rdf-syntax-ns#"
   xmlns:svg="http://www.w3.org/2000/svg"
   xmlns="http://www.w3.org/2000/svg"
   xmlns:sodipodi="http://sodipodi.sourceforge.net/DTD/sodipodi-0.dtd"
   xmlns:inkscape="http://www.inkscape.org/namespaces/inkscape"
   width="800"
   height="600"
   id="svg2"
   sodipodi:version="0.32"
   inkscape:version="0.46"
   version="1.0"
   sodipodi:docname="splash.svg"
   inkscape:output_extension="org.inkscape.output.svg.inkscape">
  <defs
     id="defs4">
    <inkscape:perspective
       sodipodi:type="inkscape:persp3d"
       inkscape:vp_x="0 : 526.18109 : 1"
       inkscape:vp_y="0 : 1000 : 0"
       inkscape:vp_z="744.09448 : 526.18109 : 1"
       inkscape:persp3d-origin="372.04724 : 350.78739 : 1"
       id="perspective10" />
    <inkscape:perspective
       id="perspective2471"
       inkscape:persp3d-origin="27.5 : 18.333333 : 1"
       inkscape:vp_z="55 : 27.5 : 1"
       inkscape:vp_y="0 : 1000 : 0"
       inkscape:vp_x="0 : 27.5 : 1"
       sodipodi:type="inkscape:persp3d" />
  </defs>
  <sodipodi:namedview
     id="base"
     pagecolor="#ffffff"
     bordercolor="#666666"
     borderopacity="1.0"
     gridtolerance="10000"
     guidetolerance="10"
     objecttolerance="10"
     inkscape:pageopacity="0.0"
     inkscape:pageshadow="2"
     inkscape:zoom="1"
     inkscape:cx="426.63631"
     inkscape:cy="300"
     inkscape:document-units="px"
     inkscape:current-layer="layer1"
     showgrid="false"
     inkscape:window-width="1108"
     inkscape:window-height="856"
     inkscape:window-x="20"
     inkscape:window-y="20" />
  <metadata
     id="metadata7">
    <rdf:RDF>
      <cc:Work
         rdf:about="">
        <dc:format>image/svg+xml</dc:format>
        <dc:type
           rdf:resource="http://purl.org/dc/dcmitype/StillImage" />
      </cc:Work>
    </rdf:RDF>
  </metadata>
  <g
     inkscape:label="Layer 1"
     inkscape:groupmode="layer"
     id="layer1">
    <rect
       style="opacity:1;fill:#000080;stroke:none"
       id="rect2459"
       width="689.67639"
       height="146.07088"
       x="50.847458"
       y="404.93066"
       rx="12.001222"
       ry="12" />
    <g
       id="g2449"
       transform="matrix(4.527989,0,0,4.527989,32.491418,11.193553)"
       style="fill:#000080">
      <g
         id="g2451"
         style="fill:#000080">
        <path
           style="fill:#000080"
           d="M 11.908,34.521 C 11.392,34.621 10.896,34.302 10.8,33.809 L 7.72,17.94 C 7.625,17.447 7.965,16.965 8.481,16.865 L 29.981,12.692 C 30.496,12.592 30.994,12.911 31.087,13.405 L 32.116,18.711 L 32.165,18.667 L 37.189,19.764 L 35.581,11.146 C 35.287,9.643 33.833,8.661 32.33,8.954 L 5.121,14.235 C 3.618,14.527 2.636,15.982 2.928,17.484 L 6.625,36.532 C 6.917,38.035 8.371,39.016 9.874,38.725 L 14.497,37.78 L 15.513,33.821 L 11.908,34.521 z"
           id="path2453" />
      </g>
    </g>
    <path
       style="fill:#ffffff"
       id="path3554_1_"
       d="M 187.19922,143.73685 C 187.63843,145.96915 186.08986,148.16069 183.75342,148.59991 L 86.415239,167.49973 C 84.074269,167.95253 81.823858,166.5081 81.393699,164.2758 L 67.447493,92.42567 C 67.017334,90.193377 68.55685,88.010886 70.897821,87.558087 L 168.24506,68.662789 C 170.57697,68.20999 172.83191,69.654418 173.25301,71.891245 L 187.19922,143.73685 z" />
    <g
       id="g2456"
       transform="matrix(4.527989,0,0,4.527989,32.491418,11.193553)"
       style="fill:#000080">
      <g
         id="g2458"
         style="fill:#000080">
        <path
           style="fill:#000080"
           d="M 49.668,23.2 L 45.044,22.246 L 42.989,25.025 L 46.021,25.694 C 46.536,25.807 46.864,26.297 46.755,26.79 L 43.27,42.573 C 43.163,43.064 42.657,43.371 42.145,43.257 L 20.76,38.534 C 20.247,38.422 19.919,37.931 20.027,37.44 L 23.512,21.656 C 23.621,21.165 24.125,20.858 24.639,20.972 L 36.213,23.528 L 38.578,20.743 L 22.602,17.22 C 21.107,16.89 19.627,17.835 19.298,19.33 L 15.113,38.274 C 14.782,39.77 15.727,41.251 17.222,41.581 L 44.286,47.558 C 45.781,47.888 47.259,46.946 47.59,45.45 L 51.778,26.504 C 52.106,25.009 51.163,23.53 49.668,23.2 z"
           id="path2460" />
      </g>
    </g>
    <path
       style="fill:#ffffff"
       id="path3560_1_"
       d="M 228.42203,203.96363 C 227.93754,206.18687 225.64637,207.57696 223.32804,207.06077 L 126.497,185.67508 C 124.17414,185.16795 122.69349,182.9447 123.17798,180.72146 L 138.95802,109.25168 C 139.45157,107.02844 141.73368,105.63835 144.06107,106.15454 L 240.87853,127.5357 C 243.21044,128.04736 244.69562,130.26608 244.20207,132.49838 L 228.42203,203.96363 z" />
    <path
       style="fill:#000080"
       id="path3562"
       d="M 272.51106,59.330604 C 272.51106,59.126844 272.502,58.909501 272.47031,58.692157 C 272.15788,56.025172 269.92558,52.760492 266.67448,50.188594 C 263.4098,47.612168 259.71949,46.213019 257.04345,46.520923 C 255.87976,46.665818 254.95605,47.163897 254.3176,47.897431 L 254.24515,47.856679 L 207.1269,110.22973 L 206.91408,110.43802 L 206.88691,110.4833 C 206.81447,110.5648 206.80088,110.678 206.74655,110.76856 L 200.62923,118.2986 C 200.62923,118.2986 200.98242,118.57481 201.34466,118.8646 L 200.60207,118.34841 L 200.48887,118.49784 C 200.21266,118.83291 200.04965,119.25854 199.9274,119.70681 C 199.87759,119.76114 199.80967,119.77473 199.7825,119.83812 L 195.94276,128.93938 L 207.47102,138.16289 L 216.46814,132.36254 C 216.53153,132.33537 216.51795,132.26292 216.56323,132.21311 C 216.79868,132.03199 217.06583,131.87804 217.25148,131.65164 C 217.26959,131.61995 217.36015,131.48411 217.37826,131.47505 L 223.66764,123.62805 L 223.76726,123.53296 L 223.74462,123.5239 L 223.81707,123.44693 L 223.83971,123.45598 L 271.46509,62.011173 C 271.56018,61.925141 271.66885,61.888917 271.74583,61.79383 C 271.84544,61.671574 271.8862,61.504038 271.95864,61.368199 L 272.01751,61.313863 L 272.00845,61.304807 C 272.3073,60.725224 272.51106,60.086778 272.51106,59.330604 z" />
    <path
       style="fill:none;stroke:#000080;stroke-width:4.56874084;stroke-opacity:1"
       id="path3564"
       d="M 184.74505,152.11815 C 184.74505,152.11815 154.40752,170.47915 148.81998,163.68717 C 143.22792,156.90424 150.41836,150.12584 154.00906,150.12584 C 157.59975,150.12584 171.17467,160.49946 161.59344,170.88667 C 152.00769,181.26029 145.2157,178.87404 145.2157,178.87404" />
    <path
       style="fill:#000080"
       id="path3566"
       d="M 188.4263,147.11925 C 188.28141,147.49508 188.37197,147.91618 188.6844,148.16975 C 188.98777,148.43237 189.42699,148.45954 189.76206,148.2422 L 202.79814,139.86089 L 194.33533,133.08249 L 188.4263,147.11925 z" />
    <text
       xml:space="preserve"
       style="font-size:40px;font-style:normal;font-variant:normal;font-weight:normal;font-stretch:normal;fill:#000000;fill-opacity:1;stroke:none;stroke-width:1px;stroke-linecap:butt;stroke-linejoin:miter;stroke-opacity:1;font-family:Bitstream Vera Serif;-inkscape-font-specification:Bitstream Vera Serif"
       x="293.53775"
       y="104.29892"
       id="text3268"><tspan
         sodipodi:role="line"
         id="tspan3270"
         x="293.53775"
         y="104.29892"
         style="font-size:28px">Welcome to</tspan><tspan
         sodipodi:role="line"
         x="293.53775"
         y="151.35254"
         id="tspan3272"><tspan
           style="font-weight:bold;-inkscape-font-specification:Bitstream Vera Serif Bold"
           id="tspan3276"><tspan
             style="fill:#000080"
             id="tspan3278">Classroom Presenter </tspan></tspan></tspan><tspan
         sodipodi:role="line"
         x="293.53775"
         y="189.29892"
         id="tspan3274"
         style="font-size:28px">for the XO Laptop.</tspan></text>
    <text
       xml:space="preserve"
       style="font-size:20px;font-style:normal;font-variant:normal;font-weight:normal;font-stretch:normal;fill:#ffffff;fill-opacity:1;stroke:none;stroke-width:1px;stroke-linecap:butt;stroke-linejoin:miter;stroke-opacity:1;font-family:Bitstream Vera Sans;-inkscape-font-specification:Bitstream Vera Sans;text-anchor:start;text-align:start;writing-mode:lr;line-height:125%"
       x="64.714943"
       y="435.43915"
       id="text2447"
       sodipodi:linespacing="125%"><tspan
         sodipodi:role="line"
         id="tspan2449"
         x="64.714943"
         y="435.43915">This is an empty presentation.  Classroom Presenter does not yet</tspan><tspan
         sodipodi:role="line"
         x="64.714943"
         y="460.43915"
         id="tspan2451">support slide creation on the XO.</tspan><tspan
         sodipodi:role="line"
         x="64.714943"
         y="485.43915"
         id="tspan2453" /><tspan
         sodipodi:role="line"
         x="64.714943"
         y="510.43915"
         id="tspan2455">To begin using Classroom Presenter, resume an existing slide</tspan><tspan
         sodipodi:role="line"
         x="64.714943"
         y="535.43915"
         id="tspan2457">deck from the Journal.</tspan></text>
    <text
       xml:space="preserve"
       style="font-size:16px;font-style:normal;font-variant:normal;font-weight:normal;font-stretch:normal;text-align:start;line-height:125%;writing-mode:lr-tb;text-anchor:start;fill:#4d4d4d;fill-opacity:1;stroke:none;stroke-width:1px;stroke-linecap:butt;stroke-linejoin:miter;stroke-opacity:1;font-family:Bitstream Vera Sans;-inkscape-font-specification:Bitstream Vera Sans"
       x="58.24345"
       y="267.31281"
       id="text2461"
       sodipodi:linespacing="125%"><tspan
         sodipodi:role="line"
         id="tspan2463"
         x="58.24345"
         y="267.31281">Classroom Presenter XO version 1.0 Beta 2</tspan><tspan
         sodipodi:role="line"
         x="58.24345"
         y="287.31281"
         id="tspan2465">University of Washington Computer Science and Engineering</tspan><tspan
         sodipodi:role="line"
         x="58.24345"
         y="307.31281"
         id="tspan2467">William Burnside, Mathias Klous, Brian Mayton, and Kristofer Plunkett</tspan><tspan
         sodipodi:role="line"
         x="58.24345"
         y="327.31281"
         id="tspan2469">http://xo.orderedpixels.com/</tspan><tspan
         sodipodi:role="line"
         x="58.24345"
         y="347.31281"
         id="tspan2471">http://classroompresenter.cs.washington.edu/</tspan></text>
  </g>
</svg>
