<?xml version="1.0" ?><!-- Generator: Adobe Illustrator 13.0.2, SVG Export Plug-In . SVG Version: 6.00 Build 14948)  --><!DOCTYPE svg  PUBLIC '-//W3C//DTD SVG 1.1//EN'  'http://www.w3.org/Graphics/SVG/1.1/DTD/svg11.dtd' [
	<!ENTITY stroke_color "#666666">
	<!ENTITY fill_color "#ffffff">
]><svg enable-background="new 0 0 55 55" height="55px" id="svg2972" version="1.1" viewBox="0 0 55 55" width="55px" x="0px" xml:space="preserve" xmlns="http://www.w3.org/2000/svg" xmlns:svg="http://www.w3.org/2000/svg" xmlns:xlink="http://www.w3.org/1999/xlink" y="0px">
<g>
	<g>
		<path d="M11.908,34.521c-0.516,0.1-1.012-0.219-1.108-0.712L7.72,17.94c-0.095-0.493,0.245-0.975,0.761-1.075    l21.5-4.173c0.515-0.1,1.013,0.219,1.106,0.713l1.029,5.306l0.049-0.044l5.024,1.097l-1.608-8.618    c-0.294-1.503-1.748-2.485-3.251-2.192L5.121,14.235c-1.503,0.292-2.485,1.747-2.193,3.249l3.697,19.048    c0.292,1.503,1.746,2.484,3.249,2.193l4.623-0.945l1.016-3.959L11.908,34.521z" fill="&stroke_color;"/>
	</g>
</g>
<path d="M34.167,29.272c0.097,0.493-0.245,0.977-0.761,1.074l-21.497,4.174  c-0.517,0.1-1.014-0.219-1.109-0.712L7.72,17.94c-0.095-0.493,0.245-0.975,0.762-1.075l21.499-4.173  c0.515-0.1,1.013,0.219,1.106,0.713L34.167,29.272z" fill="&fill_color;" id="path3554_1_"/>
<g>
	<g>
		<path d="M49.668,23.2l-4.624-0.954l-2.055,2.779l3.032,0.669c0.515,0.113,0.843,0.603,0.734,1.096l-3.485,15.783    c-0.107,0.491-0.613,0.798-1.125,0.684l-21.385-4.723c-0.513-0.112-0.841-0.603-0.733-1.094l3.485-15.784    c0.109-0.491,0.613-0.798,1.127-0.684l11.574,2.556l2.365-2.785L22.602,17.22c-1.495-0.33-2.975,0.615-3.304,2.11l-4.185,18.944    c-0.331,1.496,0.614,2.977,2.109,3.307l27.064,5.977c1.495,0.33,2.973-0.612,3.304-2.108l4.188-18.946    C52.106,25.009,51.163,23.53,49.668,23.2z" fill="&stroke_color;"/>
	</g>
</g>
<path d="M43.271,42.573c-0.107,0.491-0.613,0.798-1.125,0.684l-21.385-4.723  c-0.513-0.112-0.84-0.603-0.733-1.094l3.485-15.784c0.109-0.491,0.613-0.798,1.127-0.684l21.382,4.722  c0.515,0.113,0.843,0.603,0.734,1.096L43.271,42.573z" fill="&fill_color;" id="path3560_1_"/>
<path d="M53.008,10.631c0-0.045-0.002-0.093-0.009-0.141c-0.069-0.589-0.562-1.31-1.28-1.878  c-0.721-0.569-1.536-0.878-2.127-0.81c-0.257,0.032-0.461,0.142-0.602,0.304l-0.016-0.009L38.568,21.872l-0.047,0.046l-0.006,0.01  c-0.016,0.018-0.019,0.043-0.031,0.063l-1.351,1.663c0,0,0.078,0.061,0.158,0.125l-0.164-0.114l-0.025,0.033  c-0.061,0.074-0.097,0.168-0.124,0.267c-0.011,0.012-0.026,0.015-0.032,0.029l-0.848,2.01l2.546,2.037l1.987-1.281  c0.014-0.006,0.011-0.022,0.021-0.033c0.052-0.04,0.111-0.074,0.152-0.124c0.004-0.007,0.024-0.037,0.028-0.039l1.389-1.733  l0.022-0.021l-0.005-0.002l0.016-0.017l0.005,0.002l10.518-13.57c0.021-0.019,0.045-0.027,0.062-0.048  c0.022-0.027,0.031-0.064,0.047-0.094l0.013-0.012l-0.002-0.002C52.963,10.939,53.008,10.798,53.008,10.631z" fill="&stroke_color;" id="path3562"/>
<path d="M33.625,31.123c0,0-6.7,4.055-7.934,2.555  c-1.235-1.498,0.353-2.995,1.146-2.995s3.791,2.291,1.675,4.585c-2.117,2.291-3.617,1.764-3.617,1.764" fill="none" id="path3564" stroke="&stroke_color;" stroke-width="1.009"/>
<path d="M34.438,30.019c-0.032,0.083-0.012,0.176,0.057,0.232c0.067,0.058,0.164,0.064,0.238,0.016  l2.879-1.851l-1.869-1.497L34.438,30.019z" fill="&stroke_color;" id="path3566"/>
</svg>